<svg width="122" height="54" viewBox="0 0 122 54" fill="none" xmlns="http://www.w3.org/2000/svg">
<rect width="122" height="54" fill="#1E1E1E"/>
<g filter="url(#filter0_d_0_1)">
<path d="M58.3072 0L76.5756 25.4914H40.0388L58.3072 0Z" fill="#F5F5F5"/>
<path d="M39.9054 7.97696L60.9999 30.8672H21.9656L39.9054 7.97696Z" fill="#F5F5F5"/>
<path d="M28.2363 11.7919L39.0079 31.0404H17.353L28.2363 11.7919Z" fill="#F5F5F5"/>
<path d="M95.5592 12.8324L112.662 35.2023H78.457L95.5592 12.8324Z" fill="#F5F5F5"/>
<path d="M4 38.8439H30.9292V45.0867H4V38.8439Z" fill="#F5F5F5"/>
<rect x="26.4411" y="30.5203" width="26.9292" height="6.24278" fill="#F5F5F5"/>
<rect x="39.0081" y="36.763" width="8.07875" height="8.32371" fill="#F5F5F5"/>
<rect x="21.0547" y="33.9886" width="9.87403" height="5.54914" fill="#F5F5F5"/>
<rect x="62.3468" y="38.8439" width="26.9292" height="6.24278" fill="#F5F5F5"/>
<rect x="82.0948" y="33.2947" width="13.4646" height="11.7919" fill="#F5F5F5"/>
<rect x="102.74" y="33.2947" width="7.18112" height="11.7919" fill="#F5F5F5"/>
<rect x="56.0631" y="31.9075" width="14.3622" height="6.93642" fill="#F5F5F5"/>
<path d="M56.0631 31.9075H70.4253V38.8439H56.0631V31.9075Z" fill="#F5F5F5"/>
<path d="M51.5749 24.2775H56.0631V38.8439H51.5749V24.2775Z" fill="#F5F5F5"/>
<rect x="19.2595" y="29.8267" width="3.59056" height="9.01735" fill="#F5F5F5"/>
<path d="M70.425 24.9711H74.0156V39.5375H70.425V24.9711Z" fill="#F5F5F5"/>
<path d="M19.7087 35.3759V39.5377H12.3236L19.7087 35.3759Z" fill="#F5F5F5"/>
<path d="M92.1183 39.7686L91.9387 32.8322H100.018L98.8326 35.5297L95.6729 38.6126L92.1183 39.7686Z" fill="#F5F5F5"/>
<path d="M107.009 39.5377L107.228 32.6013H97.3542L98.8024 35.2988L102.664 38.3816L107.009 39.5377Z" fill="#F5F5F5"/>
<path d="M47.0868 45.0868V38.1504H55.1655L51.1262 39.1908L48.4332 41.2718L47.0868 45.0868Z" fill="#F5F5F5"/>
<path d="M109.223 38.8439L109.024 45.0867H118L116.683 42.659L113.173 39.8844L109.223 38.8439Z" fill="#F5F5F5"/>
<path d="M63.0449 38.8439L63.2443 45.0867H54.2679L55.5845 42.659L59.0953 39.8844L63.0449 38.8439Z" fill="#F5F5F5"/>
</g>
<defs>
<filter id="filter0_d_0_1" x="0" y="0" width="122" height="53.0868" filterUnits="userSpaceOnUse" color-interpolation-filters="sRGB">
<feFlood flood-opacity="0" result="BackgroundImageFix"/>
<feColorMatrix in="SourceAlpha" type="matrix" values="0 0 0 0 0 0 0 0 0 0 0 0 0 0 0 0 0 0 127 0" result="hardAlpha"/>
<feOffset dy="4"/>
<feGaussianBlur stdDeviation="2"/>
<feComposite in2="hardAlpha" operator="out"/>
<feColorMatrix type="matrix" values="0 0 0 0 0 0 0 0 0 0 0 0 0 0 0 0 0 0 0.25 0"/>
<feBlend mode="normal" in2="BackgroundImageFix" result="effect1_dropShadow_0_1"/>
<feBlend mode="normal" in="SourceGraphic" in2="effect1_dropShadow_0_1" result="shape"/>
</filter>
</defs>
</svg>
